<svg xmlns="http://www.w3.org/2000/svg" viewBox="0 0 24 24"><circle cx="12" cy="12" r="12" fill="#2E8B57" /><path fill="#fff" fill-rule="evenodd" d="M14.006 13.316h-3.364v1.378h2.696a1.316 1.316 0 110 2.632h-2.696v1.358a1.316 1.316 0 01-2.634 0v-1.358H6.65a1.316 1.316 0 110-2.632h1.358v-1.378H6.65a1.316 1.316 0 110-2.632h1.358V5.316c0-.727.59-1.316 1.317-1.316h4.681c2.57 0 4.66 2.09 4.66 4.658a4.664 4.664 0 01-4.66 4.658zM10.641 6.63h3.365c1.117 0 2.027.91 2.027 2.026 0 1.117-.91 2.026-2.027 2.026H10.64V6.631z" clip-rule="evenodd" /></svg>
