<?xml version="1.0" standalone="no"?>
<!DOCTYPE svg PUBLIC "-//W3C//DTD SVG 20010904//EN"
 "http://www.w3.org/TR/2001/REC-SVG-20010904/DTD/svg10.dtd">
<svg version="1.0" xmlns="http://www.w3.org/2000/svg"
 width="700.000000pt" height="700.000000pt" viewBox="0 0 700.000000 700.000000"
 preserveAspectRatio="xMidYMid meet">
<metadata>
Created by potrace 1.11, written by Peter Selinger 2001-2013
</metadata>
<g transform="translate(0.000000,700.000000) scale(0.100000,-0.100000)"
fill="#000000" stroke="none">
<path d="M2595 5812 c-101 -35 -179 -108 -229 -212 -21 -44 -21 -55 -26 -880
l-5 -835 -250 -5 -250 -5 -60 -29 c-76 -38 -149 -110 -183 -184 -24 -50 -27
-69 -27 -162 0 -96 3 -110 29 -165 38 -76 105 -143 181 -181 l60 -29 250 -5
250 -5 0 -200 0 -200 -250 -5 c-245 -5 -251 -5 -307 -32 -74 -34 -152 -112
-186 -186 -24 -50 -27 -69 -27 -162 0 -96 3 -110 29 -165 38 -76 105 -143 181
-181 l60 -29 250 -5 250 -5 5 -250 5 -250 29 -60 c38 -76 105 -143 181 -181
55 -26 69 -29 165 -29 95 0 110 3 163 28 75 38 146 108 183 182 l29 60 5 250
5 250 445 5 445 5 60 29 c76 38 143 105 181 181 26 55 29 69 29 165 0 93 -3
112 -27 162 -34 74 -112 152 -186 186 l-57 27 -445 5 -445 5 0 200 0 200 595
6 c652 6 643 5 828 71 470 165 819 577 897 1058 19 122 19 328 0 450 -81 495
-453 921 -935 1070 -193 60 -199 60 -1059 60 -720 -1 -790 -2 -836 -18z m1569
-752 c174 -26 344 -138 430 -285 50 -85 79 -192 79 -295 1 -271 -176 -501
-443 -577 -59 -16 -112 -18 -595 -18 l-530 0 -3 580 c-1 319 0 586 3 593 6 15
952 17 1059 2z"/>
</g>
</svg>
