<svg xmlns="http://www.w3.org/2000/svg" version="1.0" viewBox="0 0 700 700"><path d="M259.5 118.8c-10.1 3.5-17.9 10.8-22.9 21.2-2.1 4.4-2.1 5.5-2.6 88l-.5 83.5-25 .5-25 .5-6 2.9c-7.6 3.8-14.9 11-18.3 18.4-2.4 5-2.7 6.9-2.7 16.2 0 9.6.3 11 2.9 16.5 3.8 7.6 10.5 14.3 18.1 18.1l6 2.9 25 .5 25 .5v40l-25 .5c-24.5.5-25.1.5-30.7 3.2-7.4 3.4-15.2 11.2-18.6 18.6-2.4 5-2.7 6.9-2.7 16.2 0 9.6.3 11 2.9 16.5 3.8 7.6 10.5 14.3 18.1 18.1l6 2.9 25 .5 25 .5.5 25 .5 25 2.9 6c3.8 7.6 10.5 14.3 18.1 18.1 5.5 2.6 6.9 2.9 16.5 2.9 9.5 0 11-.3 16.3-2.8 7.5-3.8 14.6-10.8 18.3-18.2l2.9-6 .5-25 .5-25 44.5-.5 44.5-.5 6-2.9c7.6-3.8 14.3-10.5 18.1-18.1 2.6-5.5 2.9-6.9 2.9-16.5 0-9.3-.3-11.2-2.7-16.2-3.4-7.4-11.2-15.2-18.6-18.6l-5.7-2.7-44.5-.5-44.5-.5v-40l59.5-.6c65.2-.6 64.3-.5 82.8-7.1 47-16.5 81.9-57.7 89.7-105.8 1.9-12.2 1.9-32.8 0-45-8.1-49.5-45.3-92.1-93.5-107-19.3-6-19.9-6-105.9-6-72 .1-79 .2-83.6 1.8zM416.4 194c17.4 2.6 34.4 13.8 43 28.5 5 8.5 7.9 19.2 7.9 29.5.1 27.1-17.6 50.1-44.3 57.7-5.9 1.6-11.2 1.8-59.5 1.8h-53l-.3-58c-.1-31.9 0-58.6.3-59.3.6-1.5 95.2-1.7 105.9-.2z" /></svg>
